<?xml version="1.0" standalone="no"?>
<!DOCTYPE svg PUBLIC "-//W3C//DTD SVG 20010904//EN"
 "http://www.w3.org/TR/2001/REC-SVG-20010904/DTD/svg10.dtd">
<svg version="1.0" xmlns="http://www.w3.org/2000/svg"
 width="265.000000pt" height="50.000000pt" viewBox="0 0 265.000000 50.000000"
 preserveAspectRatio="xMidYMid meet">

<g transform="translate(0.000000,50.000000) scale(0.100000,-0.100000)"
fill="#000000" stroke="none">
<path d="M655 353 c-25 -6 -45 -31 -45 -56 0 -13 5 -17 16 -13 11 4 14 1 10
-12 -23 -75 -35 -137 -27 -145 19 -19 44 -1 56 38 6 22 13 34 16 27 7 -21 57
6 75 39 38 75 -17 142 -101 122z m62 -69 c3 -8 -2 -23 -11 -32 -15 -15 -16
-15 -16 5 0 12 -8 27 -17 32 -15 9 -14 10 10 11 16 0 30 -7 34 -16z"/>
<path d="M832 348 c-12 -16 -52 -173 -52 -205 0 -18 6 -23 24 -23 15 0 27 7
29 18 38 138 49 205 36 213 -19 12 -25 11 -37 -3z"/>
<path d="M1220 330 c-6 -15 -23 -39 -37 -52 l-26 -23 7 25 c3 14 9 35 12 48 5
19 2 22 -23 22 -29 0 -30 -2 -51 -94 -29 -124 -28 -136 3 -136 19 0 25 5 25
23 0 47 16 48 38 2 22 -45 48 -58 58 -30 3 8 -5 34 -19 59 l-24 44 24 13 c25
14 59 62 65 93 2 12 -5 21 -19 26 -17 7 -23 4 -33 -20z"/>
<path d="M1310 299 c-15 -33 -35 -66 -44 -72 -8 -7 -16 -32 -18 -57 -2 -40 0
-45 20 -48 14 -2 24 3 29 15 3 10 17 28 30 40 l23 22 0 -39 c0 -36 3 -40 25
-40 l25 0 0 110 c0 109 0 111 -26 120 -14 6 -27 10 -30 10 -3 0 -18 -27 -34
-61z m50 -39 c0 -20 -5 -30 -15 -30 -18 0 -18 2 -3 35 15 32 18 32 18 -5z"/>
<path d="M1650 321 c-11 -22 -29 -45 -39 -51 -18 -9 -19 -8 -10 22 14 49 11
58 -16 58 -26 0 -27 -3 -59 -140 -21 -86 -20 -90 9 -90 19 0 26 7 31 28 3 15
7 32 8 37 2 6 14 -11 27 -38 23 -48 33 -54 58 -38 11 7 9 17 -12 55 l-26 47
39 39 c22 22 40 44 40 49 0 5 3 16 6 24 3 9 -3 20 -15 26 -18 10 -23 7 -41
-28z"/>
<path d="M1926 328 c-22 -54 -49 -177 -42 -194 3 -9 15 -14 28 -12 18 3 25 17
47 111 21 93 23 110 10 118 -23 14 -29 11 -43 -23z"/>
<path d="M2040 340 c-17 -32 -60 -172 -60 -196 0 -18 5 -24 23 -24 21 0 25 7
37 58 19 88 29 94 27 17 -2 -66 -1 -70 21 -73 19 -3 27 8 58 70 l36 73 -7 -73
c-7 -73 -7 -74 16 -70 26 3 28 13 42 156 6 59 5 63 -16 71 -34 13 -42 5 -75
-66 l-31 -67 -3 64 c-3 60 -5 64 -31 71 -21 6 -29 3 -37 -11z"/>
<path d="M2320 328 c-11 -18 -25 -48 -31 -65 -6 -18 -16 -33 -24 -33 -15 0
-21 -22 -21 -70 1 -28 5 -36 22 -38 16 -2 23 4 28 22 3 15 13 26 21 26 8 0 19
8 24 18 8 13 10 8 11 -26 0 -39 2 -43 23 -40 21 3 22 6 21 111 -1 59 -3 109
-5 111 -2 2 -14 7 -26 10 -18 6 -26 1 -43 -26z m26 -96 c-12 -11 -17 7 -9 34
l8 29 3 -28 c2 -16 1 -31 -2 -35z"/>
<path d="M911 328 c-5 -14 -5 -26 2 -30 6 -4 3 -34 -10 -87 -11 -44 -18 -83
-15 -86 3 -3 15 -5 28 -5 19 0 24 9 38 71 19 86 20 96 4 102 -7 3 1 6 18 6 17
1 33 -1 36 -4 3 -3 -3 -40 -13 -83 -24 -97 -24 -94 8 -90 26 3 29 8 51 101 29
122 26 127 -70 127 -62 0 -69 -2 -77 -22z"/>
<path d="M1745 330 c-3 -11 -3 -25 0 -30 4 -6 -9 -42 -29 -80 -42 -80 -45
-100 -13 -100 18 0 28 14 56 75 18 41 31 81 27 90 -3 10 1 15 13 15 18 0 19
-3 5 -62 -30 -127 -30 -120 2 -116 28 3 30 6 48 99 11 52 17 103 13 112 -5 13
-19 17 -61 17 -46 0 -56 -3 -61 -20z"/>
<path d="M2427 343 c-4 -3 -7 -15 -7 -25 0 -13 7 -18 25 -18 14 0 25 -1 25 -2
0 -2 -9 -37 -20 -78 -25 -97 -25 -100 8 -100 27 0 29 3 45 77 12 56 14 80 6
90 -9 10 -5 13 19 13 27 0 42 14 42 41 0 10 -133 13 -143 2z"/>
</g>
</svg>
